<mxfile host="app.diagrams.net" modified="2023-09-13T03:20:28.744Z" agent="Mozilla/5.0 (Windows NT 10.0; Win64; x64) AppleWebKit/537.36 (KHTML, like Gecko) Chrome/116.0.0.0 Safari/537.36" etag="cvkhwAqsN59VtnzaZ_l3" version="21.7.4" type="github">
  <diagram name="Page-1" id="WnavpTP4DxltAn48Q-KB">
    <mxGraphModel dx="722" dy="1012" grid="1" gridSize="10" guides="1" tooltips="1" connect="1" arrows="1" fold="1" page="1" pageScale="1" pageWidth="4681" pageHeight="3300" math="0" shadow="0">
      <root>
        <mxCell id="0" />
        <mxCell id="1" parent="0" />
        <mxCell id="dYo3Jm7Ds4nDOC7QX4zw-8" style="edgeStyle=orthogonalEdgeStyle;rounded=0;orthogonalLoop=1;jettySize=auto;html=1;exitX=0.5;exitY=1;exitDx=0;exitDy=0;entryX=0.5;entryY=0;entryDx=0;entryDy=0;" edge="1" parent="1" source="dYo3Jm7Ds4nDOC7QX4zw-1" target="dYo3Jm7Ds4nDOC7QX4zw-5">
          <mxGeometry relative="1" as="geometry" />
        </mxCell>
        <mxCell id="dYo3Jm7Ds4nDOC7QX4zw-1" value="&lt;font style=&quot;font-size: 19px;&quot;&gt;&lt;b&gt;Start&lt;/b&gt;&lt;/font&gt;" style="rounded=1;whiteSpace=wrap;html=1;" vertex="1" parent="1">
          <mxGeometry x="350" y="220" width="120" height="60" as="geometry" />
        </mxCell>
        <mxCell id="dYo3Jm7Ds4nDOC7QX4zw-2" value="&lt;span style=&quot;font-size: 19px;&quot;&gt;&lt;b&gt;End&lt;/b&gt;&lt;/span&gt;" style="rounded=1;whiteSpace=wrap;html=1;" vertex="1" parent="1">
          <mxGeometry x="355" y="1110" width="110" height="60" as="geometry" />
        </mxCell>
        <mxCell id="dYo3Jm7Ds4nDOC7QX4zw-3" value="&lt;font style=&quot;font-size: 19px;&quot;&gt;&lt;b&gt;paintComponent(Graphics g)&lt;/b&gt;&lt;/font&gt;" style="text;strokeColor=none;align=center;fillColor=none;html=1;verticalAlign=middle;whiteSpace=wrap;rounded=0;" vertex="1" parent="1">
          <mxGeometry x="250" y="90" width="320" height="30" as="geometry" />
        </mxCell>
        <mxCell id="dYo3Jm7Ds4nDOC7QX4zw-10" style="edgeStyle=orthogonalEdgeStyle;rounded=0;orthogonalLoop=1;jettySize=auto;html=1;exitX=0.5;exitY=1;exitDx=0;exitDy=0;" edge="1" parent="1" source="dYo3Jm7Ds4nDOC7QX4zw-4" target="dYo3Jm7Ds4nDOC7QX4zw-6">
          <mxGeometry relative="1" as="geometry" />
        </mxCell>
        <mxCell id="dYo3Jm7Ds4nDOC7QX4zw-4" value="&lt;span style=&quot;font-size: 19px;&quot;&gt;&lt;b&gt;drawHorizontalNotesLines(g)&lt;/b&gt;&lt;/span&gt;" style="rounded=1;whiteSpace=wrap;html=1;" vertex="1" parent="1">
          <mxGeometry x="240" y="520" width="340" height="60" as="geometry" />
        </mxCell>
        <mxCell id="dYo3Jm7Ds4nDOC7QX4zw-9" style="edgeStyle=orthogonalEdgeStyle;rounded=0;orthogonalLoop=1;jettySize=auto;html=1;exitX=0.5;exitY=1;exitDx=0;exitDy=0;entryX=0.5;entryY=0;entryDx=0;entryDy=0;" edge="1" parent="1" source="dYo3Jm7Ds4nDOC7QX4zw-5" target="dYo3Jm7Ds4nDOC7QX4zw-4">
          <mxGeometry relative="1" as="geometry" />
        </mxCell>
        <mxCell id="dYo3Jm7Ds4nDOC7QX4zw-5" value="&lt;span style=&quot;font-size: 19px;&quot;&gt;&lt;b&gt;super.paintComponent(g)&lt;/b&gt;&lt;/span&gt;" style="rounded=1;whiteSpace=wrap;html=1;" vertex="1" parent="1">
          <mxGeometry x="260" y="350" width="300" height="60" as="geometry" />
        </mxCell>
        <mxCell id="dYo3Jm7Ds4nDOC7QX4zw-11" style="edgeStyle=orthogonalEdgeStyle;rounded=0;orthogonalLoop=1;jettySize=auto;html=1;exitX=0.5;exitY=1;exitDx=0;exitDy=0;" edge="1" parent="1" source="dYo3Jm7Ds4nDOC7QX4zw-6" target="dYo3Jm7Ds4nDOC7QX4zw-7">
          <mxGeometry relative="1" as="geometry" />
        </mxCell>
        <mxCell id="dYo3Jm7Ds4nDOC7QX4zw-13" style="edgeStyle=orthogonalEdgeStyle;rounded=0;orthogonalLoop=1;jettySize=auto;html=1;exitX=1;exitY=0.5;exitDx=0;exitDy=0;entryX=1;entryY=0.5;entryDx=0;entryDy=0;" edge="1" parent="1" source="dYo3Jm7Ds4nDOC7QX4zw-6" target="dYo3Jm7Ds4nDOC7QX4zw-2">
          <mxGeometry relative="1" as="geometry">
            <Array as="points">
              <mxPoint x="630" y="710" />
              <mxPoint x="630" y="1140" />
            </Array>
          </mxGeometry>
        </mxCell>
        <mxCell id="dYo3Jm7Ds4nDOC7QX4zw-6" value="&lt;span style=&quot;font-size: 19px;&quot;&gt;&lt;b&gt;for: Shape shape in shapes&lt;/b&gt;&lt;/span&gt;" style="rounded=1;whiteSpace=wrap;html=1;" vertex="1" parent="1">
          <mxGeometry x="250" y="680" width="320" height="60" as="geometry" />
        </mxCell>
        <mxCell id="dYo3Jm7Ds4nDOC7QX4zw-12" style="edgeStyle=orthogonalEdgeStyle;rounded=0;orthogonalLoop=1;jettySize=auto;html=1;exitX=0;exitY=0.5;exitDx=0;exitDy=0;entryX=0;entryY=0.5;entryDx=0;entryDy=0;" edge="1" parent="1" source="dYo3Jm7Ds4nDOC7QX4zw-7" target="dYo3Jm7Ds4nDOC7QX4zw-6">
          <mxGeometry relative="1" as="geometry">
            <Array as="points">
              <mxPoint x="200" y="880" />
              <mxPoint x="200" y="710" />
            </Array>
          </mxGeometry>
        </mxCell>
        <mxCell id="dYo3Jm7Ds4nDOC7QX4zw-7" value="&lt;span style=&quot;font-size: 19px;&quot;&gt;&lt;b&gt;shape.draw(g)&lt;/b&gt;&lt;/span&gt;" style="rounded=1;whiteSpace=wrap;html=1;" vertex="1" parent="1">
          <mxGeometry x="310" y="850" width="200" height="60" as="geometry" />
        </mxCell>
        <mxCell id="dYo3Jm7Ds4nDOC7QX4zw-14" value="&lt;font style=&quot;font-size: 18px;&quot;&gt;True&lt;/font&gt;" style="text;strokeColor=none;align=center;fillColor=none;html=1;verticalAlign=middle;whiteSpace=wrap;rounded=0;" vertex="1" parent="1">
          <mxGeometry x="410" y="740" width="60" height="30" as="geometry" />
        </mxCell>
        <mxCell id="dYo3Jm7Ds4nDOC7QX4zw-15" value="&lt;font style=&quot;font-size: 18px;&quot;&gt;False&lt;/font&gt;" style="text;strokeColor=none;align=center;fillColor=none;html=1;verticalAlign=middle;whiteSpace=wrap;rounded=0;" vertex="1" parent="1">
          <mxGeometry x="570" y="680" width="60" height="30" as="geometry" />
        </mxCell>
        <mxCell id="dYo3Jm7Ds4nDOC7QX4zw-16" value="&lt;b style=&quot;border-color: var(--border-color); font-size: 19px;&quot;&gt;drawHorizontalNotesLines(Graphics g)&lt;/b&gt;" style="text;strokeColor=none;align=center;fillColor=none;html=1;verticalAlign=middle;whiteSpace=wrap;rounded=0;" vertex="1" parent="1">
          <mxGeometry x="980" y="75" width="420" height="60" as="geometry" />
        </mxCell>
        <mxCell id="dYo3Jm7Ds4nDOC7QX4zw-24" style="edgeStyle=orthogonalEdgeStyle;rounded=0;orthogonalLoop=1;jettySize=auto;html=1;exitX=0.5;exitY=1;exitDx=0;exitDy=0;entryX=0.5;entryY=0;entryDx=0;entryDy=0;" edge="1" parent="1" source="dYo3Jm7Ds4nDOC7QX4zw-17" target="dYo3Jm7Ds4nDOC7QX4zw-18">
          <mxGeometry relative="1" as="geometry" />
        </mxCell>
        <mxCell id="dYo3Jm7Ds4nDOC7QX4zw-17" value="&lt;font style=&quot;font-size: 19px;&quot;&gt;&lt;b&gt;Start&lt;/b&gt;&lt;/font&gt;" style="rounded=1;whiteSpace=wrap;html=1;" vertex="1" parent="1">
          <mxGeometry x="1150" y="220" width="120" height="60" as="geometry" />
        </mxCell>
        <mxCell id="dYo3Jm7Ds4nDOC7QX4zw-25" style="edgeStyle=orthogonalEdgeStyle;rounded=0;orthogonalLoop=1;jettySize=auto;html=1;exitX=0.5;exitY=1;exitDx=0;exitDy=0;entryX=0.5;entryY=0;entryDx=0;entryDy=0;" edge="1" parent="1" source="dYo3Jm7Ds4nDOC7QX4zw-18" target="dYo3Jm7Ds4nDOC7QX4zw-19">
          <mxGeometry relative="1" as="geometry" />
        </mxCell>
        <mxCell id="dYo3Jm7Ds4nDOC7QX4zw-18" value="&lt;span style=&quot;font-size: 19px;&quot;&gt;&lt;b&gt;Color save = g.getColor()&lt;/b&gt;&lt;/span&gt;" style="rounded=1;whiteSpace=wrap;html=1;" vertex="1" parent="1">
          <mxGeometry x="1055" y="380" width="310" height="60" as="geometry" />
        </mxCell>
        <mxCell id="dYo3Jm7Ds4nDOC7QX4zw-26" style="edgeStyle=orthogonalEdgeStyle;rounded=0;orthogonalLoop=1;jettySize=auto;html=1;exitX=0.5;exitY=1;exitDx=0;exitDy=0;" edge="1" parent="1" source="dYo3Jm7Ds4nDOC7QX4zw-19" target="dYo3Jm7Ds4nDOC7QX4zw-20">
          <mxGeometry relative="1" as="geometry" />
        </mxCell>
        <mxCell id="dYo3Jm7Ds4nDOC7QX4zw-19" value="&lt;span style=&quot;font-size: 19px;&quot;&gt;&lt;b&gt;g.getColor(new Color(227,227,227)&lt;/b&gt;&lt;/span&gt;" style="rounded=1;whiteSpace=wrap;html=1;" vertex="1" parent="1">
          <mxGeometry x="1005" y="500" width="410" height="60" as="geometry" />
        </mxCell>
        <mxCell id="dYo3Jm7Ds4nDOC7QX4zw-27" style="edgeStyle=orthogonalEdgeStyle;rounded=0;orthogonalLoop=1;jettySize=auto;html=1;exitX=0.5;exitY=1;exitDx=0;exitDy=0;entryX=0.5;entryY=0;entryDx=0;entryDy=0;" edge="1" parent="1" source="dYo3Jm7Ds4nDOC7QX4zw-20" target="dYo3Jm7Ds4nDOC7QX4zw-21">
          <mxGeometry relative="1" as="geometry" />
        </mxCell>
        <mxCell id="dYo3Jm7Ds4nDOC7QX4zw-20" value="&lt;span style=&quot;font-size: 19px;&quot;&gt;&lt;b&gt;for: int y = MUSIC_LINES_SPACE&lt;/b&gt;&lt;/span&gt;" style="rounded=1;whiteSpace=wrap;html=1;" vertex="1" parent="1">
          <mxGeometry x="1000" y="650" width="420" height="60" as="geometry" />
        </mxCell>
        <mxCell id="dYo3Jm7Ds4nDOC7QX4zw-28" style="edgeStyle=orthogonalEdgeStyle;rounded=0;orthogonalLoop=1;jettySize=auto;html=1;exitX=0.5;exitY=1;exitDx=0;exitDy=0;" edge="1" parent="1" source="dYo3Jm7Ds4nDOC7QX4zw-21" target="dYo3Jm7Ds4nDOC7QX4zw-22">
          <mxGeometry relative="1" as="geometry" />
        </mxCell>
        <mxCell id="dYo3Jm7Ds4nDOC7QX4zw-39" style="edgeStyle=orthogonalEdgeStyle;rounded=0;orthogonalLoop=1;jettySize=auto;html=1;exitX=1;exitY=0.5;exitDx=0;exitDy=0;entryX=1;entryY=0.5;entryDx=0;entryDy=0;" edge="1" parent="1" source="dYo3Jm7Ds4nDOC7QX4zw-21" target="dYo3Jm7Ds4nDOC7QX4zw-31">
          <mxGeometry relative="1" as="geometry">
            <Array as="points">
              <mxPoint x="1570" y="800" />
              <mxPoint x="1570" y="1190" />
            </Array>
          </mxGeometry>
        </mxCell>
        <mxCell id="dYo3Jm7Ds4nDOC7QX4zw-21" value="&lt;span style=&quot;font-size: 19px;&quot;&gt;&lt;b&gt;y &amp;lt; getHeight()&lt;/b&gt;&lt;/span&gt;" style="rounded=1;whiteSpace=wrap;html=1;" vertex="1" parent="1">
          <mxGeometry x="1085" y="770" width="250" height="60" as="geometry" />
        </mxCell>
        <mxCell id="dYo3Jm7Ds4nDOC7QX4zw-29" style="edgeStyle=orthogonalEdgeStyle;rounded=0;orthogonalLoop=1;jettySize=auto;html=1;exitX=0.5;exitY=1;exitDx=0;exitDy=0;" edge="1" parent="1" source="dYo3Jm7Ds4nDOC7QX4zw-22" target="dYo3Jm7Ds4nDOC7QX4zw-23">
          <mxGeometry relative="1" as="geometry" />
        </mxCell>
        <mxCell id="dYo3Jm7Ds4nDOC7QX4zw-22" value="&lt;span style=&quot;font-size: 19px;&quot;&gt;&lt;b&gt;g.drawLine(0,y,getWidth(),y)&lt;/b&gt;&lt;/span&gt;" style="rounded=1;whiteSpace=wrap;html=1;" vertex="1" parent="1">
          <mxGeometry x="1035" y="900" width="350" height="60" as="geometry" />
        </mxCell>
        <mxCell id="dYo3Jm7Ds4nDOC7QX4zw-30" style="edgeStyle=orthogonalEdgeStyle;rounded=0;orthogonalLoop=1;jettySize=auto;html=1;exitX=0;exitY=0.5;exitDx=0;exitDy=0;entryX=0;entryY=0.5;entryDx=0;entryDy=0;" edge="1" parent="1" source="dYo3Jm7Ds4nDOC7QX4zw-23" target="dYo3Jm7Ds4nDOC7QX4zw-21">
          <mxGeometry relative="1" as="geometry">
            <Array as="points">
              <mxPoint x="990" y="1060" />
              <mxPoint x="990" y="800" />
            </Array>
          </mxGeometry>
        </mxCell>
        <mxCell id="dYo3Jm7Ds4nDOC7QX4zw-23" value="&lt;span style=&quot;font-size: 19px;&quot;&gt;&lt;b&gt;y += MUSIC_LINES_SPACE&lt;/b&gt;&lt;/span&gt;" style="rounded=1;whiteSpace=wrap;html=1;" vertex="1" parent="1">
          <mxGeometry x="1045" y="1030" width="330" height="60" as="geometry" />
        </mxCell>
        <mxCell id="dYo3Jm7Ds4nDOC7QX4zw-40" style="edgeStyle=orthogonalEdgeStyle;rounded=0;orthogonalLoop=1;jettySize=auto;html=1;exitX=0.5;exitY=1;exitDx=0;exitDy=0;entryX=0.5;entryY=0;entryDx=0;entryDy=0;" edge="1" parent="1" source="dYo3Jm7Ds4nDOC7QX4zw-31" target="dYo3Jm7Ds4nDOC7QX4zw-32">
          <mxGeometry relative="1" as="geometry" />
        </mxCell>
        <mxCell id="dYo3Jm7Ds4nDOC7QX4zw-42" style="edgeStyle=orthogonalEdgeStyle;rounded=0;orthogonalLoop=1;jettySize=auto;html=1;exitX=0;exitY=0.5;exitDx=0;exitDy=0;entryX=0;entryY=0.5;entryDx=0;entryDy=0;" edge="1" parent="1" source="dYo3Jm7Ds4nDOC7QX4zw-31" target="dYo3Jm7Ds4nDOC7QX4zw-34">
          <mxGeometry relative="1" as="geometry">
            <Array as="points">
              <mxPoint x="840" y="1190" />
              <mxPoint x="840" y="1650" />
            </Array>
          </mxGeometry>
        </mxCell>
        <mxCell id="dYo3Jm7Ds4nDOC7QX4zw-31" value="&lt;span style=&quot;font-size: 19px;&quot;&gt;&lt;b&gt;if: playLineColumn &amp;gt; 0 &amp;amp;&amp;amp; playLineColumn &amp;lt; getWidth()&lt;/b&gt;&lt;/span&gt;" style="rounded=1;whiteSpace=wrap;html=1;" vertex="1" parent="1">
          <mxGeometry x="910" y="1160" width="600" height="60" as="geometry" />
        </mxCell>
        <mxCell id="dYo3Jm7Ds4nDOC7QX4zw-41" style="edgeStyle=orthogonalEdgeStyle;rounded=0;orthogonalLoop=1;jettySize=auto;html=1;exitX=0.5;exitY=1;exitDx=0;exitDy=0;" edge="1" parent="1" source="dYo3Jm7Ds4nDOC7QX4zw-32" target="dYo3Jm7Ds4nDOC7QX4zw-33">
          <mxGeometry relative="1" as="geometry" />
        </mxCell>
        <mxCell id="dYo3Jm7Ds4nDOC7QX4zw-32" value="&lt;span style=&quot;font-size: 19px;&quot;&gt;&lt;b&gt;g.setColor(Color.RED)&lt;/b&gt;&lt;/span&gt;" style="rounded=1;whiteSpace=wrap;html=1;" vertex="1" parent="1">
          <mxGeometry x="1075" y="1320" width="270" height="60" as="geometry" />
        </mxCell>
        <mxCell id="dYo3Jm7Ds4nDOC7QX4zw-43" style="edgeStyle=orthogonalEdgeStyle;rounded=0;orthogonalLoop=1;jettySize=auto;html=1;exitX=0.5;exitY=1;exitDx=0;exitDy=0;" edge="1" parent="1" source="dYo3Jm7Ds4nDOC7QX4zw-33" target="dYo3Jm7Ds4nDOC7QX4zw-34">
          <mxGeometry relative="1" as="geometry" />
        </mxCell>
        <mxCell id="dYo3Jm7Ds4nDOC7QX4zw-33" value="&lt;span style=&quot;font-size: 19px;&quot;&gt;&lt;b&gt;g.drawLine(playLineColumn, 0, playLineColumn, getHeight())&lt;/b&gt;&lt;/span&gt;" style="rounded=1;whiteSpace=wrap;html=1;" vertex="1" parent="1">
          <mxGeometry x="900" y="1460" width="620" height="60" as="geometry" />
        </mxCell>
        <mxCell id="dYo3Jm7Ds4nDOC7QX4zw-44" style="edgeStyle=orthogonalEdgeStyle;rounded=0;orthogonalLoop=1;jettySize=auto;html=1;exitX=0.5;exitY=1;exitDx=0;exitDy=0;" edge="1" parent="1" source="dYo3Jm7Ds4nDOC7QX4zw-34" target="dYo3Jm7Ds4nDOC7QX4zw-35">
          <mxGeometry relative="1" as="geometry" />
        </mxCell>
        <mxCell id="dYo3Jm7Ds4nDOC7QX4zw-34" value="&lt;span style=&quot;font-size: 19px;&quot;&gt;&lt;b&gt;g.setColor(save)&lt;/b&gt;&lt;/span&gt;" style="rounded=1;whiteSpace=wrap;html=1;" vertex="1" parent="1">
          <mxGeometry x="1085" y="1620" width="250" height="60" as="geometry" />
        </mxCell>
        <mxCell id="dYo3Jm7Ds4nDOC7QX4zw-35" value="&lt;span style=&quot;font-size: 19px;&quot;&gt;&lt;b&gt;End&lt;/b&gt;&lt;/span&gt;" style="rounded=1;whiteSpace=wrap;html=1;" vertex="1" parent="1">
          <mxGeometry x="1150" y="1790" width="120" height="60" as="geometry" />
        </mxCell>
        <mxCell id="dYo3Jm7Ds4nDOC7QX4zw-45" value="&lt;font style=&quot;font-size: 18px;&quot;&gt;True&lt;/font&gt;" style="text;strokeColor=none;align=center;fillColor=none;html=1;verticalAlign=middle;whiteSpace=wrap;rounded=0;" vertex="1" parent="1">
          <mxGeometry x="1210" y="830" width="60" height="30" as="geometry" />
        </mxCell>
        <mxCell id="dYo3Jm7Ds4nDOC7QX4zw-46" value="&lt;font style=&quot;font-size: 18px;&quot;&gt;True&lt;/font&gt;" style="text;strokeColor=none;align=center;fillColor=none;html=1;verticalAlign=middle;whiteSpace=wrap;rounded=0;" vertex="1" parent="1">
          <mxGeometry x="1210" y="1220" width="60" height="30" as="geometry" />
        </mxCell>
        <mxCell id="dYo3Jm7Ds4nDOC7QX4zw-47" value="&lt;font style=&quot;font-size: 18px;&quot;&gt;False&lt;/font&gt;" style="text;strokeColor=none;align=center;fillColor=none;html=1;verticalAlign=middle;whiteSpace=wrap;rounded=0;" vertex="1" parent="1">
          <mxGeometry x="1335" y="770" width="60" height="30" as="geometry" />
        </mxCell>
        <mxCell id="dYo3Jm7Ds4nDOC7QX4zw-48" value="&lt;font style=&quot;font-size: 18px;&quot;&gt;False&lt;/font&gt;" style="text;strokeColor=none;align=center;fillColor=none;html=1;verticalAlign=middle;whiteSpace=wrap;rounded=0;" vertex="1" parent="1">
          <mxGeometry x="850" y="1160" width="60" height="30" as="geometry" />
        </mxCell>
        <mxCell id="dYo3Jm7Ds4nDOC7QX4zw-57" style="edgeStyle=orthogonalEdgeStyle;rounded=0;orthogonalLoop=1;jettySize=auto;html=1;exitX=1;exitY=0.5;exitDx=0;exitDy=0;entryX=0;entryY=0.5;entryDx=0;entryDy=0;" edge="1" parent="1" source="dYo3Jm7Ds4nDOC7QX4zw-50" target="dYo3Jm7Ds4nDOC7QX4zw-51">
          <mxGeometry relative="1" as="geometry" />
        </mxCell>
        <mxCell id="dYo3Jm7Ds4nDOC7QX4zw-58" style="edgeStyle=orthogonalEdgeStyle;rounded=0;orthogonalLoop=1;jettySize=auto;html=1;exitX=1;exitY=0.5;exitDx=0;exitDy=0;entryX=0;entryY=0.5;entryDx=0;entryDy=0;" edge="1" parent="1" source="dYo3Jm7Ds4nDOC7QX4zw-50" target="dYo3Jm7Ds4nDOC7QX4zw-52">
          <mxGeometry relative="1" as="geometry" />
        </mxCell>
        <mxCell id="dYo3Jm7Ds4nDOC7QX4zw-60" style="edgeStyle=orthogonalEdgeStyle;rounded=0;orthogonalLoop=1;jettySize=auto;html=1;exitX=1;exitY=0.5;exitDx=0;exitDy=0;entryX=0;entryY=0.5;entryDx=0;entryDy=0;" edge="1" parent="1" source="dYo3Jm7Ds4nDOC7QX4zw-50" target="dYo3Jm7Ds4nDOC7QX4zw-56">
          <mxGeometry relative="1" as="geometry" />
        </mxCell>
        <mxCell id="dYo3Jm7Ds4nDOC7QX4zw-50" value="&lt;font style=&quot;font-size: 19px;&quot;&gt;&lt;b&gt;DrawingPlayer.selectAndPlayShapes&lt;/b&gt;&lt;/font&gt;" style="rounded=1;whiteSpace=wrap;html=1;" vertex="1" parent="1">
          <mxGeometry x="1710" y="200" width="410" height="60" as="geometry" />
        </mxCell>
        <mxCell id="dYo3Jm7Ds4nDOC7QX4zw-51" value="&lt;font size=&quot;1&quot;&gt;&lt;b style=&quot;font-size: 19px;&quot;&gt;Drawing.getShapeAtColumn&lt;/b&gt;&lt;/font&gt;" style="rounded=1;whiteSpace=wrap;html=1;" vertex="1" parent="1">
          <mxGeometry x="2290" y="200" width="340" height="60" as="geometry" />
        </mxCell>
        <mxCell id="dYo3Jm7Ds4nDOC7QX4zw-61" style="edgeStyle=orthogonalEdgeStyle;rounded=0;orthogonalLoop=1;jettySize=auto;html=1;exitX=1;exitY=0.5;exitDx=0;exitDy=0;entryX=0;entryY=0.5;entryDx=0;entryDy=0;" edge="1" parent="1" source="dYo3Jm7Ds4nDOC7QX4zw-52" target="dYo3Jm7Ds4nDOC7QX4zw-53">
          <mxGeometry relative="1" as="geometry" />
        </mxCell>
        <mxCell id="dYo3Jm7Ds4nDOC7QX4zw-52" value="&lt;span style=&quot;font-size: 19px;&quot;&gt;&lt;b&gt;Shape.unselectedAndStopPlaying&lt;/b&gt;&lt;/span&gt;" style="rounded=1;whiteSpace=wrap;html=1;" vertex="1" parent="1">
          <mxGeometry x="2290" y="390" width="390" height="60" as="geometry" />
        </mxCell>
        <mxCell id="dYo3Jm7Ds4nDOC7QX4zw-62" style="edgeStyle=orthogonalEdgeStyle;rounded=0;orthogonalLoop=1;jettySize=auto;html=1;exitX=1;exitY=0.5;exitDx=0;exitDy=0;entryX=0;entryY=0.5;entryDx=0;entryDy=0;" edge="1" parent="1" source="dYo3Jm7Ds4nDOC7QX4zw-53" target="dYo3Jm7Ds4nDOC7QX4zw-55">
          <mxGeometry relative="1" as="geometry" />
        </mxCell>
        <mxCell id="dYo3Jm7Ds4nDOC7QX4zw-53" value="&lt;span style=&quot;font-size: 19px;&quot;&gt;&lt;b&gt;Shape.stopPlaying&lt;/b&gt;&lt;/span&gt;" style="rounded=1;whiteSpace=wrap;html=1;" vertex="1" parent="1">
          <mxGeometry x="2770" y="390" width="270" height="60" as="geometry" />
        </mxCell>
        <mxCell id="dYo3Jm7Ds4nDOC7QX4zw-55" value="&lt;span style=&quot;font-size: 19px;&quot;&gt;&lt;b&gt;MidSynth.stop&lt;/b&gt;&lt;/span&gt;" style="rounded=1;whiteSpace=wrap;html=1;" vertex="1" parent="1">
          <mxGeometry x="3160" y="390" width="220" height="60" as="geometry" />
        </mxCell>
        <mxCell id="dYo3Jm7Ds4nDOC7QX4zw-66" style="edgeStyle=orthogonalEdgeStyle;rounded=0;orthogonalLoop=1;jettySize=auto;html=1;exitX=1;exitY=0.5;exitDx=0;exitDy=0;entryX=0;entryY=0.5;entryDx=0;entryDy=0;" edge="1" parent="1" source="dYo3Jm7Ds4nDOC7QX4zw-56" target="dYo3Jm7Ds4nDOC7QX4zw-63">
          <mxGeometry relative="1" as="geometry" />
        </mxCell>
        <mxCell id="dYo3Jm7Ds4nDOC7QX4zw-56" value="&lt;span style=&quot;font-size: 19px;&quot;&gt;&lt;b&gt;Shape.selectAndPlay&lt;/b&gt;&lt;/span&gt;" style="rounded=1;whiteSpace=wrap;html=1;" vertex="1" parent="1">
          <mxGeometry x="2290" y="580" width="270" height="60" as="geometry" />
        </mxCell>
        <mxCell id="dYo3Jm7Ds4nDOC7QX4zw-67" style="edgeStyle=orthogonalEdgeStyle;rounded=0;orthogonalLoop=1;jettySize=auto;html=1;exitX=1;exitY=0.5;exitDx=0;exitDy=0;entryX=0;entryY=0.5;entryDx=0;entryDy=0;" edge="1" parent="1" source="dYo3Jm7Ds4nDOC7QX4zw-63" target="dYo3Jm7Ds4nDOC7QX4zw-64">
          <mxGeometry relative="1" as="geometry" />
        </mxCell>
        <mxCell id="dYo3Jm7Ds4nDOC7QX4zw-68" style="edgeStyle=orthogonalEdgeStyle;rounded=0;orthogonalLoop=1;jettySize=auto;html=1;exitX=1;exitY=0.5;exitDx=0;exitDy=0;entryX=0;entryY=0.5;entryDx=0;entryDy=0;" edge="1" parent="1" source="dYo3Jm7Ds4nDOC7QX4zw-63" target="dYo3Jm7Ds4nDOC7QX4zw-65">
          <mxGeometry relative="1" as="geometry" />
        </mxCell>
        <mxCell id="dYo3Jm7Ds4nDOC7QX4zw-63" value="&lt;span style=&quot;font-size: 19px;&quot;&gt;&lt;b&gt;Shape.play&lt;/b&gt;&lt;/span&gt;" style="rounded=1;whiteSpace=wrap;html=1;" vertex="1" parent="1">
          <mxGeometry x="2640" y="580" width="190" height="60" as="geometry" />
        </mxCell>
        <mxCell id="dYo3Jm7Ds4nDOC7QX4zw-64" value="&lt;span style=&quot;font-size: 19px;&quot;&gt;&lt;b&gt;Shape.areaToVelocity&lt;/b&gt;&lt;/span&gt;" style="rounded=1;whiteSpace=wrap;html=1;" vertex="1" parent="1">
          <mxGeometry x="2910" y="580" width="270" height="60" as="geometry" />
        </mxCell>
        <mxCell id="dYo3Jm7Ds4nDOC7QX4zw-65" value="&lt;span style=&quot;font-size: 19px;&quot;&gt;&lt;b&gt;MidSynth.play&lt;/b&gt;&lt;/span&gt;" style="rounded=1;whiteSpace=wrap;html=1;" vertex="1" parent="1">
          <mxGeometry x="2910" y="725" width="210" height="60" as="geometry" />
        </mxCell>
        <mxCell id="dYo3Jm7Ds4nDOC7QX4zw-78" style="edgeStyle=orthogonalEdgeStyle;rounded=0;orthogonalLoop=1;jettySize=auto;html=1;exitX=1;exitY=0.5;exitDx=0;exitDy=0;entryX=0;entryY=0.5;entryDx=0;entryDy=0;" edge="1" parent="1" source="dYo3Jm7Ds4nDOC7QX4zw-69" target="dYo3Jm7Ds4nDOC7QX4zw-70">
          <mxGeometry relative="1" as="geometry" />
        </mxCell>
        <mxCell id="dYo3Jm7Ds4nDOC7QX4zw-79" style="edgeStyle=orthogonalEdgeStyle;rounded=0;orthogonalLoop=1;jettySize=auto;html=1;exitX=1;exitY=0.5;exitDx=0;exitDy=0;entryX=0;entryY=0.5;entryDx=0;entryDy=0;" edge="1" parent="1" source="dYo3Jm7Ds4nDOC7QX4zw-69" target="dYo3Jm7Ds4nDOC7QX4zw-71">
          <mxGeometry relative="1" as="geometry" />
        </mxCell>
        <mxCell id="dYo3Jm7Ds4nDOC7QX4zw-89" style="edgeStyle=orthogonalEdgeStyle;rounded=0;orthogonalLoop=1;jettySize=auto;html=1;exitX=1;exitY=0.5;exitDx=0;exitDy=0;entryX=0;entryY=0.5;entryDx=0;entryDy=0;" edge="1" parent="1" source="dYo3Jm7Ds4nDOC7QX4zw-69" target="dYo3Jm7Ds4nDOC7QX4zw-85">
          <mxGeometry relative="1" as="geometry">
            <Array as="points">
              <mxPoint x="2250" y="2050" />
              <mxPoint x="2250" y="2520" />
            </Array>
          </mxGeometry>
        </mxCell>
        <mxCell id="dYo3Jm7Ds4nDOC7QX4zw-90" style="edgeStyle=orthogonalEdgeStyle;rounded=0;orthogonalLoop=1;jettySize=auto;html=1;exitX=1;exitY=0.5;exitDx=0;exitDy=0;entryX=0;entryY=0.75;entryDx=0;entryDy=0;" edge="1" parent="1" source="dYo3Jm7Ds4nDOC7QX4zw-69" target="dYo3Jm7Ds4nDOC7QX4zw-86">
          <mxGeometry relative="1" as="geometry">
            <Array as="points">
              <mxPoint x="2250" y="2050" />
              <mxPoint x="2250" y="2705" />
            </Array>
          </mxGeometry>
        </mxCell>
        <mxCell id="dYo3Jm7Ds4nDOC7QX4zw-69" value="&lt;span style=&quot;font-size: 19px;&quot;&gt;&lt;b&gt;ShapeTool.mousePressedInDrawingArea&lt;/b&gt;&lt;/span&gt;" style="rounded=1;whiteSpace=wrap;html=1;" vertex="1" parent="1">
          <mxGeometry x="1740" y="2020" width="450" height="60" as="geometry" />
        </mxCell>
        <mxCell id="dYo3Jm7Ds4nDOC7QX4zw-70" value="&lt;span style=&quot;font-size: 19px;&quot;&gt;&lt;b&gt;DrawingEditor.getMidiSynth&lt;/b&gt;&lt;/span&gt;" style="rounded=1;whiteSpace=wrap;html=1;" vertex="1" parent="1">
          <mxGeometry x="2310" y="2020" width="350" height="60" as="geometry" />
        </mxCell>
        <mxCell id="dYo3Jm7Ds4nDOC7QX4zw-77" style="edgeStyle=orthogonalEdgeStyle;rounded=0;orthogonalLoop=1;jettySize=auto;html=1;exitX=1;exitY=0.5;exitDx=0;exitDy=0;entryX=0;entryY=0.5;entryDx=0;entryDy=0;" edge="1" parent="1" source="dYo3Jm7Ds4nDOC7QX4zw-71" target="dYo3Jm7Ds4nDOC7QX4zw-74">
          <mxGeometry relative="1" as="geometry" />
        </mxCell>
        <mxCell id="dYo3Jm7Ds4nDOC7QX4zw-71" value="&lt;span style=&quot;font-size: 19px;&quot;&gt;&lt;b&gt;Shape.selectAndPlay&lt;/b&gt;&lt;/span&gt;" style="rounded=1;whiteSpace=wrap;html=1;" vertex="1" parent="1">
          <mxGeometry x="2310" y="2170" width="270" height="60" as="geometry" />
        </mxCell>
        <mxCell id="dYo3Jm7Ds4nDOC7QX4zw-72" style="edgeStyle=orthogonalEdgeStyle;rounded=0;orthogonalLoop=1;jettySize=auto;html=1;exitX=1;exitY=0.5;exitDx=0;exitDy=0;entryX=0;entryY=0.5;entryDx=0;entryDy=0;" edge="1" parent="1" source="dYo3Jm7Ds4nDOC7QX4zw-74" target="dYo3Jm7Ds4nDOC7QX4zw-75">
          <mxGeometry relative="1" as="geometry" />
        </mxCell>
        <mxCell id="dYo3Jm7Ds4nDOC7QX4zw-73" style="edgeStyle=orthogonalEdgeStyle;rounded=0;orthogonalLoop=1;jettySize=auto;html=1;exitX=1;exitY=0.5;exitDx=0;exitDy=0;entryX=0;entryY=0.5;entryDx=0;entryDy=0;" edge="1" parent="1" source="dYo3Jm7Ds4nDOC7QX4zw-74" target="dYo3Jm7Ds4nDOC7QX4zw-76">
          <mxGeometry relative="1" as="geometry" />
        </mxCell>
        <mxCell id="dYo3Jm7Ds4nDOC7QX4zw-74" value="&lt;span style=&quot;font-size: 19px;&quot;&gt;&lt;b&gt;Shape.play&lt;/b&gt;&lt;/span&gt;" style="rounded=1;whiteSpace=wrap;html=1;" vertex="1" parent="1">
          <mxGeometry x="2650" y="2170" width="190" height="60" as="geometry" />
        </mxCell>
        <mxCell id="dYo3Jm7Ds4nDOC7QX4zw-75" value="&lt;span style=&quot;font-size: 19px;&quot;&gt;&lt;b&gt;Shape.areaToVelocity&lt;/b&gt;&lt;/span&gt;" style="rounded=1;whiteSpace=wrap;html=1;" vertex="1" parent="1">
          <mxGeometry x="2920" y="2170" width="270" height="60" as="geometry" />
        </mxCell>
        <mxCell id="dYo3Jm7Ds4nDOC7QX4zw-76" value="&lt;span style=&quot;font-size: 19px;&quot;&gt;&lt;b&gt;MidSynth.play&lt;/b&gt;&lt;/span&gt;" style="rounded=1;whiteSpace=wrap;html=1;" vertex="1" parent="1">
          <mxGeometry x="2920" y="2315" width="210" height="60" as="geometry" />
        </mxCell>
        <mxCell id="dYo3Jm7Ds4nDOC7QX4zw-85" value="&lt;span style=&quot;font-size: 19px;&quot;&gt;&lt;b&gt;Shape.setBounds&lt;/b&gt;&lt;/span&gt;" style="rounded=1;whiteSpace=wrap;html=1;" vertex="1" parent="1">
          <mxGeometry x="2300" y="2490" width="230" height="60" as="geometry" />
        </mxCell>
        <mxCell id="dYo3Jm7Ds4nDOC7QX4zw-91" style="edgeStyle=orthogonalEdgeStyle;rounded=0;orthogonalLoop=1;jettySize=auto;html=1;exitX=1;exitY=0.5;exitDx=0;exitDy=0;" edge="1" parent="1" source="dYo3Jm7Ds4nDOC7QX4zw-86" target="dYo3Jm7Ds4nDOC7QX4zw-87">
          <mxGeometry relative="1" as="geometry" />
        </mxCell>
        <mxCell id="dYo3Jm7Ds4nDOC7QX4zw-86" value="&lt;span style=&quot;font-size: 19px;&quot;&gt;&lt;b&gt;DrawingEditor.addToDrawing&lt;/b&gt;&lt;/span&gt;" style="rounded=1;whiteSpace=wrap;html=1;" vertex="1" parent="1">
          <mxGeometry x="2290" y="2660" width="350" height="60" as="geometry" />
        </mxCell>
        <mxCell id="dYo3Jm7Ds4nDOC7QX4zw-87" value="&lt;span style=&quot;font-size: 19px;&quot;&gt;&lt;b&gt;Drawing.addShape&lt;/b&gt;&lt;/span&gt;" style="rounded=1;whiteSpace=wrap;html=1;" vertex="1" parent="1">
          <mxGeometry x="2790" y="2660" width="260" height="60" as="geometry" />
        </mxCell>
      </root>
    </mxGraphModel>
  </diagram>
</mxfile>
